<svg width="150" height="43" viewBox="0 0 150 43" fill="none" xmlns="http://www.w3.org/2000/svg">
<path d="M20.9879 10.7347C20.4398 9.4108 19.6361 8.2084 18.6236 7.1959C17.6111 6.1834 16.4078 5.3797 15.0848 4.8316C13.76 4.2817 12.3417 4 10.9089 4C10.5858 4 10.2654 4.0189 9.94499 4.0477C9.84959 4.0567 9.75509 4.0684 9.66059 4.0792C9.4248 4.1062 9.1899 4.1413 8.95678 4.1836C8.86318 4.2007 8.76958 4.216 8.67599 4.2358C8.36369 4.3015 8.05319 4.3753 7.7481 4.468C7.7463 4.468 7.7445 4.468 7.7427 4.4698C7.4349 4.5634 7.1334 4.6741 6.83551 4.7947C6.80221 4.8082 6.76801 4.8172 6.73471 4.8307C6.67981 4.8532 6.62941 4.8829 6.57541 4.9063C6.35671 5.0008 6.14161 5.1034 5.92831 5.2123C5.84372 5.2555 5.75822 5.2978 5.67452 5.3437C5.39372 5.4976 5.11742 5.6596 4.85013 5.8378C4.84833 5.8387 4.84743 5.8396 4.84563 5.8405C4.57923 6.0187 4.32363 6.2122 4.07524 6.412C4.00054 6.4723 3.92854 6.5353 3.85474 6.5974C3.67384 6.7513 3.49744 6.9106 3.32734 7.0753C3.28414 7.1167 3.23734 7.1527 3.19504 7.195C3.16895 7.2211 3.14735 7.2499 3.12215 7.276C2.89715 7.5055 2.67935 7.7404 2.47595 7.9888C2.47415 7.9915 2.47235 7.9933 2.47055 7.996C2.26896 8.2417 2.08176 8.4991 1.90266 8.7619C1.84956 8.84019 1.79916 8.9203 1.74786 9.0004C1.61916 9.2002 1.49766 9.4036 1.38156 9.6106C1.33477 9.6943 1.28797 9.7771 1.24297 9.8617C1.09447 10.1452 0.954969 10.4332 0.831668 10.7302L0.829868 10.7338V10.7374C0.705669 11.0344 0.60037 11.3377 0.504971 11.6428C0.476172 11.7337 0.451872 11.8255 0.425772 11.9164C0.360073 12.145 0.303374 12.3754 0.252974 12.6067C0.233174 12.7003 0.211575 12.793 0.193575 12.8866C0.135075 13.1998 0.0846757 13.5148 0.053176 13.8316C0.053176 13.8334 0.053176 13.8361 0.053176 13.8379C0.0216764 14.1574 0.00907647 14.4787 0.0063765 14.8C0.0063765 14.836 0.000976562 14.872 0.000976562 14.908H0.00727649C0.00727649 15.619 0.0702758 16.3318 0.210675 17.0365C0.63187 19.1524 1.67046 21.0964 3.19594 22.6219C4.72143 24.1474 6.66541 25.186 8.78128 25.6072C10.8972 26.0284 13.0905 25.8124 15.0839 24.9862C17.0774 24.1609 18.7811 22.7623 19.9799 20.9686C21.1787 19.1749 21.8186 17.0653 21.8186 14.908C21.8186 13.4752 21.5369 12.0568 20.9879 10.7329V10.7347ZM13.6304 16.7269C13.2714 17.2651 12.7593 17.6845 12.1617 17.932C11.5632 18.1795 10.9053 18.2443 10.2708 18.1183C9.63539 17.9923 9.0531 17.68 8.59499 17.2228C8.13689 16.7647 7.82549 16.1824 7.6995 15.547C7.6509 15.3004 7.6392 15.0511 7.6473 14.8027C7.6518 14.6596 7.6662 14.5174 7.6896 14.3761C7.6986 14.3203 7.7067 14.2645 7.7184 14.2087C7.7598 14.0206 7.81199 13.8343 7.88579 13.6561C7.95959 13.477 8.05409 13.3087 8.15759 13.1467C8.18819 13.099 8.22239 13.054 8.25569 13.0081C8.33849 12.892 8.42939 12.7822 8.52659 12.6778C8.56529 12.6364 8.60309 12.5941 8.64449 12.5545C8.92348 12.2863 9.2466 12.0703 9.60029 11.9155C9.65249 11.893 9.70559 11.8741 9.75869 11.8543C9.89279 11.8039 10.0296 11.7625 10.1691 11.7301C10.224 11.7175 10.2789 11.7031 10.3347 11.6932C10.5246 11.659 10.7163 11.6365 10.9098 11.6365C11.34 11.6365 11.7648 11.7211 12.1626 11.8858C12.5595 12.0505 12.9204 12.2917 13.2246 12.595C13.5288 12.8992 13.769 13.2601 13.9337 13.657C14.0984 14.0539 14.183 14.4796 14.183 14.9098C14.183 15.5569 13.9913 16.1896 13.6313 16.7278L13.6304 16.7269Z" fill="url(#paint0_linear_67_4750)"/>
<path d="M19.9799 35.152C21.1787 33.3583 21.8185 31.2487 21.8185 29.0914H14.1821C14.1821 29.7385 13.9904 30.3712 13.6304 30.9094C13.2713 31.4476 12.7601 31.867 12.1617 32.1145C11.5632 32.362 10.9053 32.4268 10.2708 32.3008C9.63628 32.1748 9.05309 31.8625 8.595 31.4053C8.13691 30.9472 7.82551 30.3649 7.69951 29.7295C7.57352 29.0941 7.63831 28.4362 7.88581 27.8386C8.13331 27.241 8.5527 26.7298 9.09089 26.3698C9.62818 26.0107 10.2591 25.819 10.9044 25.8181H10.9089V18.1816H10.9062C8.7498 18.1816 6.64113 18.8215 4.84835 20.0203C4.01315 20.5783 3.26436 21.2452 2.61907 22.0003C1.87748 22.8679 1.27178 23.8507 0.830791 24.9163C0.0046001 26.9098 -0.211397 29.1031 0.209798 31.219C0.630994 33.3349 1.66958 35.2789 3.19506 36.8044C4.72055 38.3299 6.66453 39.3694 8.7804 39.7897C10.8963 40.2109 13.0895 39.9949 15.083 39.1687C17.0765 38.3434 18.7802 36.9448 19.979 35.1511L19.9799 35.152Z" fill="url(#paint1_linear_67_4750)"/>
<path d="M25.0908 18.1824C27.9843 18.1824 30.759 19.3317 32.8046 21.3774C34.8503 23.4231 35.9996 26.1978 35.9996 29.0913C35.9996 31.9848 34.8503 34.7595 32.8046 36.8052C30.759 38.8509 27.9843 40.0002 25.0908 40.0002V32.3637C25.9584 32.3637 26.7909 32.019 27.4047 31.4052C28.0185 30.7914 28.3632 29.9589 28.3632 29.0913C28.3632 28.2237 28.0185 27.3912 27.4047 26.7774C26.7909 26.1636 25.9584 25.8189 25.0908 25.8189V18.1824Z" fill="url(#paint2_linear_67_4750)"/>
<path d="M25.0904 40.0002C22.197 40.0002 19.4223 38.8509 17.3766 36.8052C15.3309 34.7595 14.1816 31.9848 14.1816 29.0913C14.1816 26.1978 15.3309 23.4231 17.3766 21.3774C19.4223 19.3317 22.197 18.1824 25.0904 18.1824V25.8189C24.2228 25.8189 23.3903 26.1636 22.7765 26.7774C22.1628 27.3912 21.8181 28.2237 21.8181 29.0913C21.8181 29.9589 22.1628 30.7914 22.7765 31.4052C23.3903 32.019 24.2228 32.3637 25.0904 32.3637V40.0002Z" fill="#1DC2C6"/>
<path d="M21.8164 14.9091H14.18C14.18 14.9361 14.18 14.9631 14.1791 14.9901C14.1692 15.3906 14.0855 15.7875 13.9307 16.1619C13.8479 16.3608 13.7471 16.5507 13.6283 16.728C13.613 16.7505 13.5977 16.773 13.5824 16.7946C13.352 17.1222 13.0613 17.4057 12.7256 17.6307C12.5465 17.7504 12.3566 17.8512 12.1595 17.9331C12.1343 17.9439 12.1091 17.9538 12.0839 17.9628C11.7104 18.1068 11.3117 18.1815 10.9067 18.1815V25.818C12.3458 25.818 13.7642 25.5336 15.0818 24.9873C15.1223 24.9711 15.1619 24.954 15.2015 24.9369C15.8153 24.6741 16.4066 24.3537 16.9673 23.9793C18.1643 23.1792 19.1848 22.155 19.9768 20.9697C20.0011 20.9337 20.0245 20.8977 20.0488 20.8608C20.4133 20.301 20.7274 19.7061 20.9848 19.0833C21.5356 17.7531 21.8155 16.3347 21.8155 14.9082L21.8164 14.9091Z" fill="#9BE183"/>
<path d="M14.1816 14.909C14.1816 12.7517 14.8215 10.6421 16.0202 8.84839C17.219 7.05469 18.9227 5.65609 20.9162 4.8308C22.9088 4.0046 25.1029 3.7886 27.2188 4.2098C29.3347 4.631 31.2787 5.66959 32.8042 7.19509C34.3296 8.72059 35.3691 10.6646 35.7894 12.7805C36.2106 14.8964 35.9946 17.0897 35.1684 19.0832C34.3431 21.0767 32.9446 22.7804 31.1509 23.9792C29.3572 25.178 27.2476 25.8179 25.0903 25.8179V18.1814C25.7374 18.1814 26.3701 17.9897 26.9083 17.6297C27.4465 17.2706 27.8659 16.7594 28.1134 16.1609C28.3609 15.5624 28.4257 14.9045 28.2997 14.27C28.1737 13.6355 27.8614 13.0523 27.4042 12.5942C26.9461 12.1361 26.3638 11.8247 25.7284 11.6987C25.0939 11.5727 24.4352 11.6375 23.8376 11.885C23.24 12.1325 22.7288 12.5519 22.3688 13.0901C22.0088 13.6283 21.8171 14.261 21.8171 14.9081H14.1807L14.1816 14.909Z" fill="url(#paint3_linear_67_4750)"/>
<path d="M48.64 32.064C48.4267 28.288 48.32 25.0027 48.32 22.208C48.32 19.392 48.384 16.4587 48.512 13.408L44.608 13.952L43.904 10.24C45.9947 9.87733 48.064 9.61067 50.112 9.44L56.096 9.12L56.704 12.672C55.5307 12.736 54.208 12.832 52.736 12.96C52.608 16.032 52.544 18.848 52.544 21.408C52.544 23.968 52.5867 27.6373 52.672 32.416L48.64 32.064ZM59.513 29.696C60.3237 29.696 61.1877 28.9173 62.105 27.36L64.537 28.8C64.1317 29.504 63.737 30.1013 63.353 30.592C62.9903 31.0827 62.4357 31.552 61.689 32C60.9423 32.448 60.1103 32.672 59.193 32.672C57.849 32.672 56.7183 32.1067 55.801 30.976C54.8837 29.824 54.425 28.2773 54.425 26.336C54.425 24.1173 54.8197 22.048 55.609 20.128C56.0357 19.1253 56.6437 18.3147 57.433 17.696C58.2437 17.056 59.065 16.736 59.897 16.736C60.7503 16.736 61.433 16.8747 61.945 17.152C62.457 17.408 62.8623 17.7067 63.161 18.048C63.481 18.368 63.7583 18.848 63.993 19.488C64.2277 20.128 64.3877 20.6507 64.473 21.056C64.5797 21.4613 64.665 22.048 64.729 22.816C64.8143 23.84 64.857 24.768 64.857 25.6C63.1503 26.0693 60.9423 26.496 58.233 26.88C58.297 27.7333 58.4463 28.416 58.681 28.928C58.9157 29.44 59.193 29.696 59.513 29.696ZM60.217 19.872C59.7477 19.872 59.321 20.3413 58.937 21.28C58.5743 22.2187 58.361 23.3067 58.297 24.544C59.4277 24.3093 60.409 24.0853 61.241 23.872C61.241 21.2053 60.8997 19.872 60.217 19.872ZM65.847 22.56C66.167 20.896 66.775 19.488 67.671 18.336C68.567 17.1627 69.7403 16.576 71.191 16.576C72.6417 16.576 73.7083 17.184 74.391 18.4C75.095 19.5947 75.447 21.3013 75.447 23.52C75.447 25.7387 75.319 28.8 75.063 32.704L72.375 32.48L72.119 31.456C71.1163 32.032 70.0923 32.32 69.047 32.32C68.0017 32.32 67.1377 31.9787 66.455 31.296C65.7723 30.592 65.431 29.5893 65.431 28.288C65.431 26.9867 66.071 25.8667 67.351 24.928C68.6523 23.9893 70.1457 23.4987 71.831 23.456V22.592C71.831 20.9067 71.4257 20.064 70.615 20.064C70.2097 20.064 69.8363 20.352 69.495 20.928C69.175 21.4827 68.9403 22.1227 68.791 22.848L65.847 22.56ZM68.695 28.48C68.695 29.1627 69.1003 29.504 69.911 29.504C70.4657 29.504 71.0523 29.376 71.671 29.12L71.735 26.432C70.7323 26.5173 69.975 26.7733 69.463 27.2C68.951 27.6053 68.695 28.032 68.695 28.48ZM83.2678 23.808C83.3104 23.5093 83.3318 23.1253 83.3318 22.656C83.3318 22.1867 83.2358 21.7067 83.0438 21.216C82.8518 20.7253 82.6064 20.48 82.3078 20.48C81.7104 20.48 81.2731 21.1733 80.9958 22.56C80.7398 23.9253 80.6118 25.184 80.6118 26.336C80.6118 28.2773 81.0064 29.248 81.7958 29.248C82.4358 29.248 83.3424 28.128 84.5158 25.888L86.8838 27.584C86.3078 29.1413 85.5824 30.3787 84.7078 31.296C83.8544 32.2133 82.8198 32.672 81.6038 32.672C80.3878 32.672 79.2891 32.192 78.3078 31.232C77.3478 30.272 76.8678 28.8107 76.8678 26.848C76.8678 24.7573 77.2091 22.6773 77.8918 20.608C78.2758 19.4773 78.8411 18.5493 79.5878 17.824C80.3558 17.0987 81.3264 16.736 82.4998 16.736C83.6731 16.736 84.6438 17.3333 85.4118 18.528C86.2011 19.7227 86.5958 21.0453 86.5958 22.496C86.5958 23.1147 86.4998 23.648 86.3078 24.096L83.2678 23.808ZM91.9483 18.976C92.9296 17.76 93.8896 17.152 94.8283 17.152C95.7883 17.152 96.5669 17.472 97.1643 18.112C98.2096 19.2213 98.7323 20.6293 98.7323 22.336C98.7323 25.4293 98.6149 28.6613 98.3803 32.032L94.6683 31.68C94.8176 28.544 94.8923 25.4613 94.8923 22.432C94.8923 21.3013 94.6043 20.736 94.0283 20.736C93.3456 20.736 92.6096 22.2293 91.8203 25.216C91.7776 27.3493 91.6709 29.7707 91.5003 32.48L87.7563 32.128C88.0336 28.4587 88.1723 24.3627 88.1723 19.84C88.1723 15.3173 88.0976 11.68 87.9483 8.928L91.6923 9.28C91.8629 12.288 91.9483 15.52 91.9483 18.976ZM100.542 32.192C100.371 26.6453 100.286 22.464 100.286 19.648C100.286 16.832 100.467 13.824 100.83 10.624L106.846 11.104C107.593 13.792 108.382 17.5573 109.214 22.4C110.409 18.496 111.465 14.272 112.382 9.728L118.43 10.272C118.601 16.864 118.686 21.6853 118.686 24.736C118.686 27.7653 118.59 30.464 118.398 32.832L114.014 32.416C114.291 29.728 114.526 24.032 114.718 15.328L114.462 15.296C114.249 16.128 113.907 17.5573 113.438 19.584C112.457 23.7867 111.507 27.3707 110.59 30.336L107.678 30.08C107.166 28.032 106.569 25.3867 105.886 22.144C105.225 18.88 104.713 16.48 104.35 14.944L104.094 14.912C104.286 22.0373 104.51 27.9253 104.766 32.576L100.542 32.192ZM124.451 29.696C125.261 29.696 126.125 28.9173 127.043 27.36L129.475 28.8C129.069 29.504 128.675 30.1013 128.291 30.592C127.928 31.0827 127.373 31.552 126.627 32C125.88 32.448 125.048 32.672 124.131 32.672C122.787 32.672 121.656 32.1067 120.739 30.976C119.821 29.824 119.363 28.2773 119.363 26.336C119.363 24.1173 119.757 22.048 120.547 20.128C120.973 19.1253 121.581 18.3147 122.371 17.696C123.181 17.056 124.003 16.736 124.835 16.736C125.688 16.736 126.371 16.8747 126.883 17.152C127.395 17.408 127.8 17.7067 128.099 18.048C128.419 18.368 128.696 18.848 128.931 19.488C129.165 20.128 129.325 20.6507 129.411 21.056C129.517 21.4613 129.603 22.048 129.667 22.816C129.752 23.84 129.795 24.768 129.795 25.6C128.088 26.0693 125.88 26.496 123.171 26.88C123.235 27.7333 123.384 28.416 123.619 28.928C123.853 29.44 124.131 29.696 124.451 29.696ZM125.155 19.872C124.685 19.872 124.259 20.3413 123.875 21.28C123.512 22.2187 123.299 23.3067 123.235 24.544C124.365 24.3093 125.347 24.0853 126.179 23.872C126.179 21.2053 125.837 19.872 125.155 19.872ZM135.201 29.696C136.011 29.696 136.875 28.9173 137.793 27.36L140.225 28.8C139.819 29.504 139.425 30.1013 139.041 30.592C138.678 31.0827 138.123 31.552 137.377 32C136.63 32.448 135.798 32.672 134.881 32.672C133.537 32.672 132.406 32.1067 131.489 30.976C130.571 29.824 130.113 28.2773 130.113 26.336C130.113 24.1173 130.507 22.048 131.297 20.128C131.723 19.1253 132.331 18.3147 133.121 17.696C133.931 17.056 134.753 16.736 135.585 16.736C136.438 16.736 137.121 16.8747 137.633 17.152C138.145 17.408 138.55 17.7067 138.849 18.048C139.169 18.368 139.446 18.848 139.681 19.488C139.915 20.128 140.075 20.6507 140.161 21.056C140.267 21.4613 140.353 22.048 140.417 22.816C140.502 23.84 140.545 24.768 140.545 25.6C138.838 26.0693 136.63 26.496 133.921 26.88C133.985 27.7333 134.134 28.416 134.369 28.928C134.603 29.44 134.881 29.696 135.201 29.696ZM135.905 19.872C135.435 19.872 135.009 20.3413 134.625 21.28C134.262 22.2187 134.049 23.3067 133.985 24.544C135.115 24.3093 136.097 24.0853 136.929 23.872C136.929 21.2053 136.587 19.872 135.905 19.872ZM149.183 18.624V21.664C148.159 21.664 147.369 21.6747 146.815 21.696C146.751 23.8293 146.719 27.4133 146.719 32.448L142.943 32.096C142.943 28.3627 142.975 24.9813 143.039 21.952C142.719 21.952 142.111 22.0053 141.215 22.112L140.735 19.488C141.247 19.3813 142.047 19.2427 143.135 19.072C143.177 17.4933 143.263 15.1893 143.391 12.16L147.199 12.512C147.071 14.624 146.975 16.672 146.911 18.656C147.444 18.6347 148.201 18.624 149.183 18.624Z" fill="url(#paint4_linear_67_4750)"/>
<defs>
<linearGradient id="paint0_linear_67_4750" x1="30.2056" y1="8.60079" x2="6.21176" y2="16.4451" gradientUnits="userSpaceOnUse">
<stop offset="0.637" stop-color="#F16930"/>
<stop offset="0.959" stop-color="#F8C70E"/>
</linearGradient>
<linearGradient id="paint1_linear_67_4750" x1="9.67048" y1="28.9573" x2="20.4704" y2="32.1073" gradientUnits="userSpaceOnUse">
<stop stop-color="#9BE183"/>
<stop offset="1" stop-color="#256B52"/>
</linearGradient>
<linearGradient id="paint2_linear_67_4750" x1="29.2498" y1="31.0002" x2="26.6937" y2="24.1116" gradientUnits="userSpaceOnUse">
<stop stop-color="#1DC2C6"/>
<stop offset="1" stop-color="#23336B"/>
</linearGradient>
<linearGradient id="paint3_linear_67_4750" x1="29.4706" y1="18.7484" x2="24.2994" y2="13.0002" gradientUnits="userSpaceOnUse">
<stop offset="0.245" stop-color="#1DC1C5"/>
<stop offset="1" stop-color="#9CE182"/>
</linearGradient>
<linearGradient id="paint4_linear_67_4750" x1="45.6392" y1="13.6923" x2="149.76" y2="24.4019" gradientUnits="userSpaceOnUse">
<stop stop-color="#1DC2C6"/>
<stop offset="0.33" stop-color="#F8C70E"/>
<stop offset="0.66" stop-color="#8AD07C"/>
<stop offset="1" stop-color="#F16930"/>
</linearGradient>
</defs>
</svg>
