<svg width="36" height="36" viewBox="0 0 36 36" fill="none" xmlns="http://www.w3.org/2000/svg">
<path d="M20.9879 6.7347C20.4398 5.4108 19.6361 4.2084 18.6236 3.1959C17.6111 2.1834 16.4078 1.3797 15.0848 0.831604C13.76 0.2817 12.3417 0 10.9089 0C10.5858 0 10.2654 0.0189 9.94499 0.0477C9.84959 0.0566999 9.75509 0.0684 9.66059 0.0791999C9.4248 0.1062 9.1899 0.1413 8.95678 0.1836C8.86318 0.2007 8.76958 0.216 8.67599 0.2358C8.36369 0.3015 8.05319 0.3753 7.7481 0.468C7.7463 0.468 7.74449 0.468 7.74269 0.4698C7.4349 0.5634 7.1334 0.6741 6.83551 0.794704C6.80221 0.808204 6.76801 0.817204 6.73471 0.830704C6.67981 0.853204 6.62941 0.882904 6.57541 0.906304C6.35671 1.0008 6.14161 1.1034 5.92832 1.2123C5.84372 1.2555 5.75822 1.2978 5.67452 1.3437C5.39372 1.4976 5.11742 1.6596 4.85013 1.8378C4.84833 1.8387 4.84743 1.8396 4.84563 1.8405C4.57923 2.0187 4.32363 2.2122 4.07524 2.412C4.00054 2.4723 3.92854 2.5353 3.85474 2.5974C3.67384 2.7513 3.49744 2.9106 3.32734 3.0753C3.28414 3.1167 3.23734 3.1527 3.19504 3.195C3.16895 3.2211 3.14735 3.2499 3.12215 3.276C2.89715 3.5055 2.67935 3.7404 2.47595 3.9888C2.47415 3.9915 2.47235 3.9933 2.47055 3.996C2.26895 4.2417 2.08176 4.4991 1.90266 4.7619C1.84956 4.84019 1.79916 4.9203 1.74786 5.0004C1.61916 5.2002 1.49766 5.4036 1.38156 5.6106C1.33477 5.6943 1.28797 5.7771 1.24297 5.8617C1.09447 6.1452 0.954969 6.4332 0.831668 6.7302L0.829868 6.7338V6.7374C0.705669 7.0344 0.60037 7.3377 0.504971 7.64279C0.476172 7.73369 0.451872 7.82549 0.425772 7.91639C0.360073 8.14499 0.303374 8.37539 0.252974 8.60669C0.233174 8.7003 0.211575 8.79299 0.193575 8.8866C0.135075 9.1998 0.0846757 9.5148 0.053176 9.8316C0.053176 9.8334 0.053176 9.8361 0.053176 9.8379C0.0216764 10.1574 0.00907647 10.4787 0.0063765 10.8C0.0063765 10.836 0.000976562 10.872 0.000976562 10.908H0.00727649C0.00727649 11.619 0.0702758 12.3318 0.210675 13.0365C0.63187 15.1524 1.67046 17.0964 3.19595 18.6219C4.72143 20.1474 6.66541 21.186 8.78128 21.6072C10.8972 22.0284 13.0905 21.8124 15.0839 20.9862C17.0774 20.1609 18.7811 18.7623 19.9799 16.9686C21.1787 15.1749 21.8186 13.0653 21.8186 10.908C21.8186 9.4752 21.5369 8.05679 20.9879 6.7329V6.7347ZM13.6304 12.7269C13.2714 13.2651 12.7593 13.6845 12.1617 13.932C11.5632 14.1795 10.9053 14.2443 10.2708 14.1183C9.63539 13.9923 9.0531 13.68 8.59499 13.2228C8.13689 12.7647 7.82549 12.1824 7.6995 11.547C7.6509 11.3004 7.6392 11.0511 7.6473 10.8027C7.6518 10.6596 7.6662 10.5174 7.6896 10.3761C7.6986 10.3203 7.7067 10.2645 7.7184 10.2087C7.7598 10.0206 7.81199 9.8343 7.88579 9.6561C7.95959 9.477 8.05409 9.3087 8.15759 9.1467C8.18819 9.099 8.22239 9.054 8.25569 9.0081C8.33849 8.892 8.42939 8.7822 8.52659 8.6778C8.56529 8.6364 8.60309 8.5941 8.64449 8.5545C8.92348 8.28629 9.2466 8.0703 9.60029 7.9155C9.65249 7.893 9.70559 7.8741 9.75869 7.8543C9.89279 7.8039 10.0296 7.7625 10.1691 7.73009C10.224 7.7175 10.2789 7.7031 10.3347 7.6932C10.5246 7.659 10.7163 7.63649 10.9098 7.63649C11.34 7.63649 11.7648 7.7211 12.1626 7.8858C12.5595 8.05049 12.9204 8.2917 13.2246 8.595C13.5288 8.8992 13.769 9.2601 13.9337 9.657C14.0984 10.0539 14.183 10.4796 14.183 10.9098C14.183 11.5569 13.9913 12.1896 13.6313 12.7278L13.6304 12.7269Z" fill="url(#paint0_linear_67_4751)"/>
<path d="M19.9799 31.152C21.1787 29.3583 21.8185 27.2487 21.8185 25.0914H14.1821C14.1821 25.7385 13.9904 26.3712 13.6304 26.9094C13.2713 27.4476 12.7601 27.867 12.1617 28.1145C11.5632 28.362 10.9053 28.4268 10.2708 28.3008C9.63628 28.1748 9.05309 27.8625 8.595 27.4053C8.13691 26.9472 7.82551 26.3649 7.69951 25.7295C7.57352 25.0941 7.63831 24.4362 7.88581 23.8386C8.13331 23.241 8.5527 22.7298 9.09089 22.3698C9.62818 22.0107 10.2591 21.819 10.9044 21.8181H10.9089V14.1816H10.9062C8.7498 14.1816 6.64113 14.8215 4.84835 16.0203C4.01315 16.5783 3.26436 17.2452 2.61907 18.0003C1.87748 18.8679 1.27178 19.8507 0.830791 20.9163C0.0046001 22.9098 -0.211397 25.1031 0.209798 27.219C0.630994 29.3349 1.66958 31.2789 3.19506 32.8044C4.72055 34.3299 6.66453 35.3694 8.7804 35.7897C10.8963 36.2109 13.0895 35.9949 15.083 35.1687C17.0765 34.3434 18.7802 32.9448 19.979 31.1511L19.9799 31.152Z" fill="url(#paint1_linear_67_4751)"/>
<path d="M25.0908 14.1824C27.9843 14.1824 30.759 15.3317 32.8046 17.3774C34.8503 19.4231 35.9996 22.1978 35.9996 25.0913C35.9996 27.9848 34.8503 30.7595 32.8046 32.8052C30.759 34.8509 27.9843 36.0002 25.0908 36.0002V28.3637C25.9584 28.3637 26.7909 28.019 27.4047 27.4052C28.0185 26.7914 28.3632 25.9589 28.3632 25.0913C28.3632 24.2237 28.0185 23.3912 27.4047 22.7774C26.7909 22.1636 25.9584 21.8189 25.0908 21.8189V14.1824Z" fill="url(#paint2_linear_67_4751)"/>
<path d="M25.0904 36.0002C22.197 36.0002 19.4223 34.8509 17.3766 32.8052C15.3309 30.7595 14.1816 27.9848 14.1816 25.0913C14.1816 22.1978 15.3309 19.4231 17.3766 17.3774C19.4223 15.3317 22.197 14.1824 25.0904 14.1824V21.8189C24.2228 21.8189 23.3903 22.1636 22.7765 22.7774C22.1628 23.3912 21.8181 24.2237 21.8181 25.0913C21.8181 25.9589 22.1628 26.7914 22.7765 27.4052C23.3903 28.019 24.2228 28.3637 25.0904 28.3637V36.0002Z" fill="#1DC2C6"/>
<path d="M21.8164 10.9091H14.18C14.18 10.9361 14.18 10.9631 14.1791 10.9901C14.1692 11.3906 14.0855 11.7875 13.9307 12.1619C13.8479 12.3608 13.7471 12.5507 13.6283 12.728C13.613 12.7505 13.5977 12.773 13.5824 12.7946C13.352 13.1222 13.0613 13.4057 12.7256 13.6307C12.5465 13.7504 12.3566 13.8512 12.1595 13.9331C12.1343 13.9439 12.1091 13.9538 12.0839 13.9628C11.7104 14.1068 11.3117 14.1815 10.9067 14.1815V21.818C12.3458 21.818 13.7642 21.5336 15.0818 20.9873C15.1223 20.9711 15.1619 20.954 15.2015 20.9369C15.8153 20.6741 16.4066 20.3537 16.9673 19.9793C18.1643 19.1792 19.1848 18.155 19.9768 16.9697C20.0011 16.9337 20.0245 16.8977 20.0488 16.8608C20.4133 16.301 20.7274 15.7061 20.9848 15.0833C21.5356 13.7531 21.8155 12.3347 21.8155 10.9082L21.8164 10.9091Z" fill="#9BE183"/>
<path d="M14.1816 10.909C14.1816 8.75169 14.8215 6.64209 16.0202 4.84839C17.219 3.05469 18.9227 1.65609 20.9162 0.830796C22.9088 0.00460074 25.1029 -0.211399 27.2188 0.209801C29.3347 0.631 31.2787 1.66959 32.8042 3.19509C34.3296 4.72059 35.3691 6.66459 35.7894 8.78049C36.2106 10.8964 35.9946 13.0897 35.1684 15.0832C34.3431 17.0767 32.9446 18.7804 31.1509 19.9792C29.3572 21.178 27.2476 21.8179 25.0903 21.8179V14.1814C25.7374 14.1814 26.3701 13.9897 26.9083 13.6297C27.4465 13.2706 27.8659 12.7594 28.1134 12.1609C28.3609 11.5624 28.4257 10.9045 28.2997 10.27C28.1737 9.63551 27.8614 9.05231 27.4042 8.59419C26.9461 8.13609 26.3638 7.82469 25.7284 7.69869C25.0939 7.57269 24.4352 7.63749 23.8376 7.88499C23.24 8.13249 22.7288 8.5519 22.3688 9.09011C22.0088 9.62831 21.8171 10.261 21.8171 10.9081H14.1807L14.1816 10.909Z" fill="url(#paint3_linear_67_4751)"/>
<defs>
<linearGradient id="paint0_linear_67_4751" x1="30.2056" y1="4.60079" x2="6.21176" y2="12.4451" gradientUnits="userSpaceOnUse">
<stop offset="0.637" stop-color="#F16930"/>
<stop offset="0.959" stop-color="#F8C70E"/>
</linearGradient>
<linearGradient id="paint1_linear_67_4751" x1="9.67048" y1="24.9573" x2="20.4704" y2="28.1073" gradientUnits="userSpaceOnUse">
<stop stop-color="#9BE183"/>
<stop offset="1" stop-color="#256B52"/>
</linearGradient>
<linearGradient id="paint2_linear_67_4751" x1="29.2498" y1="27.0002" x2="26.6937" y2="20.1116" gradientUnits="userSpaceOnUse">
<stop stop-color="#1DC2C6"/>
<stop offset="1" stop-color="#23336B"/>
</linearGradient>
<linearGradient id="paint3_linear_67_4751" x1="29.4706" y1="14.7484" x2="24.2994" y2="9.00016" gradientUnits="userSpaceOnUse">
<stop offset="0.245" stop-color="#1DC1C5"/>
<stop offset="1" stop-color="#9CE182"/>
</linearGradient>
</defs>
</svg>
