<svg xmlns="http://www.w3.org/2000/svg" version="1.1" xmlns:xlink="http://www.w3.org/1999/xlink" width="1000" height="1000"><g clip-path="url(#SvgjsClipPath1110)"><rect width="1000" height="1000" fill="#ffffff"></rect><g transform="matrix(30.76923076923077,0,0,30.76923076923077,223.0769230769231,100)"><svg xmlns="http://www.w3.org/2000/svg" version="1.1" xmlns:xlink="http://www.w3.org/1999/xlink" width="18" height="26"><svg width="18" height="26" viewBox="0 0 18 26" fill="none" xmlns="http://www.w3.org/2000/svg">
<path d="M2.72775 21.3907C2.99388 21.3408 3.29326 21.3075 3.62591 21.3075C3.67581 19.5611 4.67377 16.667 5.73826 13.6732C4.7403 13.5235 3.89204 13.5235 3.37643 13.8728C3.01051 12.4257 4.39101 12.143 6.28713 12.1762C7.26846 9.3986 8.21651 6.68748 8.41611 4.87453C6.83601 4.77474 5.43887 4.94106 4.55734 5.93902C4.27459 6.23841 3.50949 2.4628 6.96907 1.83076C9.77998 1.31515 15.7677 3.61045 17.6472 0.965869C17.93 0.583319 18.1628 4.0429 16.2833 4.97433C15.0858 5.55647 13.5057 5.48994 11.8591 5.29035C11.6262 6.88708 10.7613 9.53166 9.86314 12.4091C11.8258 12.5422 13.5556 12.5255 13.9215 11.5941C14.5036 15.0703 12.0254 14.9539 9.26437 14.3884C8.49927 16.9498 7.78407 19.5445 7.51794 21.6568C9.92967 21.9396 12.3414 22.0394 13.4059 20.5258C13.6886 20.1433 13.9215 23.6028 12.042 24.5176C8.74876 26.1476 2.67786 22.8211 0.316025 25.4823C0.0332709 25.7817 -0.731829 22.0061 2.72775 21.3907Z" fill="#3C4242"></path>
</svg></svg></g></g><defs><clipPath id="SvgjsClipPath1110"><rect width="1000" height="1000" x="0" y="0" rx="150" ry="150"></rect></clipPath></defs></svg>